<svg width="1241" height="68" viewBox="0 0 1241 68" fill="none" xmlns="http://www.w3.org/2000/svg">
<path d="M20.5745 34.6485L9.34014 46.1362V62.2561H0.5V0H9.34014V34.8338L42.859 0H52.9883L26.6521 27.9782L54.83 62.2561H44.5165L20.5745 34.6485Z" fill="#FF6060"/>
<path d="M119.289 57.2534L122.789 50.5831C126.84 53.3624 133.102 55.4005 139.18 55.4005C147.099 55.4005 150.23 52.9918 150.23 48.9155C150.23 38.3542 120.578 47.4332 120.578 28.7193C120.578 20.1962 128.129 14.6376 140.1 14.6376C146.178 14.6376 153.176 16.3051 157.228 18.8992L153.545 25.5695C149.309 22.7902 144.705 21.8637 140.1 21.8637C132.734 21.8637 129.05 24.643 129.05 28.3487C129.05 39.4659 158.702 30.3869 158.702 48.7302C158.702 57.2534 150.966 62.6267 138.443 62.6267C130.892 62.812 123.157 60.4032 119.289 57.2534Z" fill="#FF6060"/>
<path d="M210.822 33.7221V62.2561H202.718V55.9564C199.956 60.218 194.615 62.6267 187.248 62.6267C176.566 62.6267 169.936 56.8828 169.936 48.7303C169.936 41.1335 174.724 35.0191 188.721 35.0191H202.166V33.3515C202.166 26.1254 197.93 22.0491 189.642 22.0491C184.117 22.0491 178.408 24.0872 174.724 27.0518L171.225 20.5668C176.014 16.6758 183.012 14.4523 190.563 14.4523C203.639 14.6376 210.822 20.9373 210.822 33.7221ZM202.35 47.8038V41.1335H189.274C180.802 41.1335 178.408 44.4687 178.408 48.3597C178.408 52.9918 182.275 55.9564 188.721 55.9564C195.167 56.1417 200.324 53.3624 202.35 47.8038Z" fill="#FF6060"/>
<path d="M92.0322 49.8419V62.4414L97.3731 59.2915V46.6921L92.0322 49.8419Z" fill="#FF6060"/>
<path d="M106.766 34.4632L84.8496 21.6784L72.6944 14.6376L60.7234 35.5749L60.9076 55.2152L82.6396 68L84.8496 66.703V48.1744L94.6106 30.9428L104.556 36.6866V55.2152L106.766 53.9182V34.4632Z" fill="#FF6060"/>
<path d="M991.685 38.8H982.757L980.909 43H978.437L986.045 26.2H988.421L996.053 43H993.533L991.685 38.8ZM990.845 36.88L987.221 28.648L983.597 36.88H990.845ZM1003.65 43.144C1002.35 43.144 1001.19 42.864 1000.17 42.304C999.162 41.744 998.37 40.976 997.794 40C997.218 39.008 996.93 37.888 996.93 36.64C996.93 35.392 997.218 34.28 997.794 33.304C998.37 32.312 999.162 31.544 1000.17 31C1001.19 30.44 1002.35 30.16 1003.65 30.16C1004.8 30.16 1005.83 30.392 1006.72 30.856C1007.63 31.32 1008.34 31.992 1008.83 32.872L1007.08 34C1006.68 33.392 1006.19 32.936 1005.59 32.632C1005 32.328 1004.35 32.176 1003.63 32.176C1002.79 32.176 1002.04 32.36 1001.37 32.728C1000.71 33.096 1000.19 33.624 999.81 34.312C999.442 34.984 999.258 35.76 999.258 36.64C999.258 37.536 999.442 38.328 999.81 39.016C1000.19 39.688 1000.71 40.208 1001.37 40.576C1002.04 40.944 1002.79 41.128 1003.63 41.128C1004.35 41.128 1005 40.976 1005.59 40.672C1006.19 40.368 1006.68 39.912 1007.08 39.304L1008.83 40.408C1008.34 41.288 1007.63 41.968 1006.72 42.448C1005.83 42.912 1004.8 43.144 1003.65 43.144ZM1017.17 43.144C1015.88 43.144 1014.72 42.864 1013.69 42.304C1012.69 41.744 1011.89 40.976 1011.32 40C1010.74 39.008 1010.45 37.888 1010.45 36.64C1010.45 35.392 1010.74 34.28 1011.32 33.304C1011.89 32.312 1012.69 31.544 1013.69 31C1014.72 30.44 1015.88 30.16 1017.17 30.16C1018.33 30.16 1019.35 30.392 1020.25 30.856C1021.16 31.32 1021.86 31.992 1022.36 32.872L1020.61 34C1020.21 33.392 1019.71 32.936 1019.12 32.632C1018.53 32.328 1017.87 32.176 1017.15 32.176C1016.32 32.176 1015.57 32.36 1014.89 32.728C1014.24 33.096 1013.72 33.624 1013.33 34.312C1012.97 34.984 1012.78 35.76 1012.78 36.64C1012.78 37.536 1012.97 38.328 1013.33 39.016C1013.72 39.688 1014.24 40.208 1014.89 40.576C1015.57 40.944 1016.32 41.128 1017.15 41.128C1017.87 41.128 1018.53 40.976 1019.12 40.672C1019.71 40.368 1020.21 39.912 1020.61 39.304L1022.36 40.408C1021.86 41.288 1021.16 41.968 1020.25 42.448C1019.35 42.912 1018.33 43.144 1017.17 43.144ZM1037.2 30.28V43H1035.01V41.08C1034.55 41.736 1033.93 42.248 1033.16 42.616C1032.41 42.968 1031.59 43.144 1030.69 43.144C1029 43.144 1027.66 42.68 1026.68 41.752C1025.71 40.808 1025.22 39.424 1025.22 37.6V30.28H1027.52V37.336C1027.52 38.568 1027.82 39.504 1028.41 40.144C1029 40.768 1029.85 41.08 1030.96 41.08C1032.17 41.08 1033.13 40.712 1033.84 39.976C1034.54 39.24 1034.89 38.2 1034.89 36.856V30.28H1037.2ZM1053.08 36.712C1053.08 36.888 1053.06 37.12 1053.03 37.408H1042.71C1042.85 38.528 1043.34 39.432 1044.17 40.12C1045.02 40.792 1046.07 41.128 1047.32 41.128C1048.84 41.128 1050.06 40.616 1050.99 39.592L1052.26 41.08C1051.69 41.752 1050.97 42.264 1050.1 42.616C1049.25 42.968 1048.3 43.144 1047.25 43.144C1045.9 43.144 1044.71 42.872 1043.67 42.328C1042.63 41.768 1041.82 40.992 1041.25 40C1040.69 39.008 1040.41 37.888 1040.41 36.64C1040.41 35.408 1040.68 34.296 1041.22 33.304C1041.78 32.312 1042.54 31.544 1043.5 31C1044.48 30.44 1045.57 30.16 1046.79 30.16C1048.01 30.16 1049.09 30.44 1050.03 31C1050.99 31.544 1051.73 32.312 1052.26 33.304C1052.81 34.296 1053.08 35.432 1053.08 36.712ZM1046.79 32.104C1045.69 32.104 1044.76 32.44 1044.01 33.112C1043.27 33.784 1042.84 34.664 1042.71 35.752H1050.87C1050.74 34.68 1050.3 33.808 1049.55 33.136C1048.81 32.448 1047.89 32.104 1046.79 32.104ZM1056.28 30.28H1058.58V43H1056.28V30.28ZM1057.43 27.832C1056.98 27.832 1056.61 27.688 1056.3 27.4C1056.01 27.112 1055.87 26.76 1055.87 26.344C1055.87 25.928 1056.01 25.576 1056.3 25.288C1056.61 24.984 1056.98 24.832 1057.43 24.832C1057.88 24.832 1058.25 24.976 1058.53 25.264C1058.84 25.536 1058.99 25.88 1058.99 26.296C1058.99 26.728 1058.84 27.096 1058.53 27.4C1058.25 27.688 1057.88 27.832 1057.43 27.832ZM1062.98 25.192H1065.28V43H1062.98V25.192Z" fill="#FF6060"/>
<path d="M978.461 45.4H1067.49V46.6H978.461V45.4Z" fill="#FF6060"/>
<path d="M1144.41 38.8H1135.48L1133.64 43H1131.16L1138.77 26.2H1141.15L1148.78 43H1146.26L1144.41 38.8ZM1143.57 36.88L1139.95 28.648L1136.32 36.88H1143.57ZM1164.28 26.2C1166.46 26.2 1168.17 26.72 1169.42 27.76C1170.67 28.8 1171.29 30.232 1171.29 32.056C1171.29 33.88 1170.67 35.312 1169.42 36.352C1168.17 37.392 1166.46 37.912 1164.28 37.912H1160.13V43H1157.73V26.2H1164.28ZM1164.21 35.824C1165.73 35.824 1166.89 35.504 1167.69 34.864C1168.49 34.208 1168.89 33.272 1168.89 32.056C1168.89 30.84 1168.49 29.912 1167.69 29.272C1166.89 28.616 1165.73 28.288 1164.21 28.288H1160.13V35.824H1164.21ZM1176.48 32.416C1176.88 31.68 1177.47 31.12 1178.25 30.736C1179.04 30.352 1179.99 30.16 1181.11 30.16V32.392C1180.98 32.376 1180.81 32.368 1180.58 32.368C1179.33 32.368 1178.35 32.744 1177.63 33.496C1176.93 34.232 1176.57 35.288 1176.57 36.664V43H1174.27V30.28H1176.48V32.416ZM1189.28 43.144C1188.02 43.144 1186.88 42.864 1185.87 42.304C1184.86 41.744 1184.07 40.976 1183.5 40C1182.94 39.008 1182.66 37.888 1182.66 36.64C1182.66 35.392 1182.94 34.28 1183.5 33.304C1184.07 32.312 1184.86 31.544 1185.87 31C1186.88 30.44 1188.02 30.16 1189.28 30.16C1190.54 30.16 1191.67 30.44 1192.66 31C1193.67 31.544 1194.46 32.312 1195.02 33.304C1195.59 34.28 1195.88 35.392 1195.88 36.64C1195.88 37.888 1195.59 39.008 1195.02 40C1194.46 40.976 1193.67 41.744 1192.66 42.304C1191.67 42.864 1190.54 43.144 1189.28 43.144ZM1189.28 41.128C1190.1 41.128 1190.82 40.944 1191.46 40.576C1192.12 40.192 1192.63 39.664 1193 38.992C1193.37 38.304 1193.55 37.52 1193.55 36.64C1193.55 35.76 1193.37 34.984 1193 34.312C1192.63 33.624 1192.12 33.096 1191.46 32.728C1190.82 32.36 1190.1 32.176 1189.28 32.176C1188.46 32.176 1187.73 32.36 1187.07 32.728C1186.43 33.096 1185.92 33.624 1185.54 34.312C1185.17 34.984 1184.98 35.76 1184.98 36.64C1184.98 37.52 1185.17 38.304 1185.54 38.992C1185.92 39.664 1186.43 40.192 1187.07 40.576C1187.73 40.944 1188.46 41.128 1189.28 41.128ZM1205.81 30.16C1207.04 30.16 1208.15 30.432 1209.12 30.976C1210.1 31.52 1210.86 32.28 1211.4 33.256C1211.96 34.232 1212.24 35.36 1212.24 36.64C1212.24 37.92 1211.96 39.056 1211.4 40.048C1210.86 41.024 1210.1 41.784 1209.12 42.328C1208.15 42.872 1207.04 43.144 1205.81 43.144C1204.9 43.144 1204.06 42.968 1203.29 42.616C1202.54 42.264 1201.9 41.752 1201.37 41.08V47.656H1199.07V30.28H1201.27V32.296C1201.79 31.592 1202.43 31.064 1203.22 30.712C1204 30.344 1204.87 30.16 1205.81 30.16ZM1205.62 41.128C1206.43 41.128 1207.16 40.944 1207.8 40.576C1208.46 40.192 1208.97 39.664 1209.34 38.992C1209.72 38.304 1209.91 37.52 1209.91 36.64C1209.91 35.76 1209.72 34.984 1209.34 34.312C1208.97 33.624 1208.46 33.096 1207.8 32.728C1207.16 32.36 1206.43 32.176 1205.62 32.176C1204.82 32.176 1204.09 32.368 1203.43 32.752C1202.79 33.12 1202.28 33.64 1201.9 34.312C1201.53 34.984 1201.35 35.76 1201.35 36.64C1201.35 37.52 1201.53 38.304 1201.9 38.992C1202.27 39.664 1202.78 40.192 1203.43 40.576C1204.09 40.944 1204.82 41.128 1205.62 41.128ZM1220.87 43.144C1219.61 43.144 1218.47 42.864 1217.47 42.304C1216.46 41.744 1215.67 40.976 1215.09 40C1214.53 39.008 1214.25 37.888 1214.25 36.64C1214.25 35.392 1214.53 34.28 1215.09 33.304C1215.67 32.312 1216.46 31.544 1217.47 31C1218.47 30.44 1219.61 30.16 1220.87 30.16C1222.14 30.16 1223.27 30.44 1224.26 31C1225.27 31.544 1226.05 32.312 1226.61 33.304C1227.19 34.28 1227.47 35.392 1227.47 36.64C1227.47 37.888 1227.19 39.008 1226.61 40C1226.05 40.976 1225.27 41.744 1224.26 42.304C1223.27 42.864 1222.14 43.144 1220.87 43.144ZM1220.87 41.128C1221.69 41.128 1222.42 40.944 1223.06 40.576C1223.71 40.192 1224.23 39.664 1224.59 38.992C1224.96 38.304 1225.15 37.52 1225.15 36.64C1225.15 35.76 1224.96 34.984 1224.59 34.312C1224.23 33.624 1223.71 33.096 1223.06 32.728C1222.42 32.36 1221.69 32.176 1220.87 32.176C1220.06 32.176 1219.32 32.36 1218.67 32.728C1218.03 33.096 1217.51 33.624 1217.13 34.312C1216.76 34.984 1216.58 35.76 1216.58 36.64C1216.58 37.52 1216.76 38.304 1217.13 38.992C1217.51 39.664 1218.03 40.192 1218.67 40.576C1219.32 40.944 1220.06 41.128 1220.87 41.128ZM1234.31 43.144C1233.27 43.144 1232.27 43.008 1231.31 42.736C1230.35 42.448 1229.6 42.088 1229.05 41.656L1230.01 39.832C1230.57 40.232 1231.25 40.552 1232.05 40.792C1232.85 41.032 1233.66 41.152 1234.48 41.152C1236.49 41.152 1237.5 40.576 1237.5 39.424C1237.5 39.04 1237.36 38.736 1237.09 38.512C1236.82 38.288 1236.48 38.128 1236.06 38.032C1235.66 37.92 1235.08 37.8 1234.33 37.672C1233.31 37.512 1232.47 37.328 1231.81 37.12C1231.17 36.912 1230.62 36.56 1230.16 36.064C1229.69 35.568 1229.46 34.872 1229.46 33.976C1229.46 32.824 1229.94 31.904 1230.9 31.216C1231.86 30.512 1233.15 30.16 1234.76 30.16C1235.61 30.16 1236.46 30.264 1237.31 30.472C1238.16 30.68 1238.85 30.96 1239.4 31.312L1238.41 33.136C1237.37 32.464 1236.15 32.128 1234.74 32.128C1233.76 32.128 1233.02 32.288 1232.51 32.608C1232 32.928 1231.74 33.352 1231.74 33.88C1231.74 34.296 1231.88 34.624 1232.17 34.864C1232.46 35.104 1232.81 35.28 1233.23 35.392C1233.66 35.504 1234.26 35.632 1235.03 35.776C1236.05 35.952 1236.88 36.144 1237.5 36.352C1238.14 36.544 1238.68 36.88 1239.13 37.36C1239.58 37.84 1239.8 38.512 1239.8 39.376C1239.8 40.528 1239.31 41.448 1238.32 42.136C1237.34 42.808 1236 43.144 1234.31 43.144Z" fill="#FF6060"/>
</svg>
